{
  "accessors": [
    {
      "bufferView": 2,
      "componentType": 5126,
      "count": 59326,
      "max": [
        8.245332717895508,
        8.231513977050781,
        54.110511779785156
      ],
      "min": [
        -12.742450714111328,
        -8.155172348022461,
        0.7329220175743103
      ],
      "type": "VEC3"
    },
    {
      "bufferView": 2,
      "byteOffset": 711912,
      "componentType": 5126,
      "count": 59326,
      "max": [
        0.9999582767486572,
        0.9999072551727295,
        0.9998716115951538
      ],
      "min": [
        -0.9998469948768616,
        -0.9999902248382568,
        -0.9999308586120605
      ],
      "type": "VEC3"
    },
    {
      "bufferView": 3,
      "componentType": 5126,
      "count": 59326,
      "max": [
        0.9990914463996887,
        1.0,
        0.9999947547912598,
        -1.0
      ],
      "min": [
        -0.9927471876144409,
        -1.0,
        -0.9999944567680359,
        -1.0
      ],
      "type": "VEC4"
    },
    {
      "bufferView": 1,
      "componentType": 5126,
      "count": 59326,
      "max": [
        0.9998329877853394,
        0.9998779892921448
      ],
      "min": [
        0.00012199999764561653,
        0.2501240074634552
      ],
      "type": "VEC2"
    },
    {
      "bufferView": 0,
      "componentType": 5125,
      "count": 59328,
      "type": "SCALAR"
    }
  ],
  "asset": {
    "extras": {
      "author": "Dystopia (https://sketchfab.com/Dystopia)",
      "license": "CC-BY-4.0 (http://creativecommons.org/licenses/by/4.0/)",
      "source": "https://sketchfab.com/3d-models/statue-of-liberty-04a8e7b1ba9142ba8cebc6108cd5bb97",
      "title": "Statue of liberty"
    },
    "generator": "Sketchfab-12.67.0",
    "version": "2.0"
  },
  "bufferViews": [
    {
      "buffer": 0,
      "byteLength": 237312,
      "name": "floatBufferViews",
      "target": 34963
    },
    {
      "buffer": 0,
      "byteLength": 474608,
      "byteOffset": 237312,
      "byteStride": 8,
      "name": "floatBufferViews",
      "target": 34962
    },
    {
      "buffer": 0,
      "byteLength": 1423824,
      "byteOffset": 711920,
      "byteStride": 12,
      "name": "floatBufferViews",
      "target": 34962
    },
    {
      "buffer": 0,
      "byteLength": 949216,
      "byteOffset": 2135744,
      "byteStride": 16,
      "name": "floatBufferViews",
      "target": 34962
    }
  ],
  "buffers": [
    {
      "byteLength": 3084960,
      "uri": "scene.bin"
    }
  ],
  "images": [
    {
      "uri": "textures/Statue_de_la_libert__Model_1_baseColor.jpeg"
    },
    {
      "uri": "textures/Statue_de_la_libert__Model_1_metallicRoughness.png"
    },
    {
      "uri": "textures/Statue_de_la_libert__Model_1_normal.jpeg"
    }
  ],
  "materials": [
    {
      "doubleSided": true,
      "name": "Statue_de_la_libert__Model_1",
      "normalTexture": {
        "index": 2
      },
      "pbrMetallicRoughness": {
        "baseColorTexture": {
          "index": 0
        },
        "metallicFactor": 0.6113855923031845,
        "metallicRoughnessTexture": {
          "index": 1
        }
      }
    }
  ],
  "meshes": [
    {
      "name": "Object_0",
      "primitives": [
        {
          "attributes": {
            "NORMAL": 1,
            "POSITION": 0,
            "TANGENT": 2,
            "TEXCOORD_0": 3
          },
          "indices": 4,
          "material": 0,
          "mode": 4
        }
      ]
    }
  ],
  "nodes": [
    {
      "children": [
        1
      ],
      "matrix": [
        1.0,
        0.0,
        0.0,
        0.0,
        0.0,
        2.220446049250313e-16,
        -1.0,
        0.0,
        0.0,
        1.0,
        2.220446049250313e-16,
        0.0,
        0.0,
        0.0,
        0.0,
        1.0
      ],
      "name": "Sketchfab_model"
    },
    {
      "children": [
        2
      ],
      "name": "Statue_de_la_libert__Model_1.obj.cleaner.materialmerger.gles"
    },
    {
      "mesh": 0,
      "name": "Object_2"
    }
  ],
  "samplers": [
    {
      "magFilter": 9729,
      "minFilter": 9987,
      "wrapS": 10497,
      "wrapT": 10497
    }
  ],
  "scene": 0,
  "scenes": [
    {
      "name": "Sketchfab_Scene",
      "nodes": [
        0
      ]
    }
  ],
  "textures": [
    {
      "sampler": 0,
      "source": 0
    },
    {
      "sampler": 0,
      "source": 1
    },
    {
      "sampler": 0,
      "source": 2
    }
  ]
}
