{
  "accessors": [
    {
      "bufferView": 2,
      "componentType": 5126,
      "count": 13,
      "max": [
        2.5490310192108154,
        7.838740825653076,
        -0.061188001185655594
      ],
      "min": [
        -9.169109344482422,
        -6.849958896636963,
        -0.14043499529361725
      ],
      "type": "VEC3"
    },
    {
      "bufferView": 1,
      "componentType": 5126,
      "count": 13,
      "max": [
        0.0,
        0.0
      ],
      "min": [
        0.0,
        0.0
      ],
      "type": "VEC2"
    },
    {
      "bufferView": 0,
      "componentType": 5125,
      "count": 14,
      "type": "SCALAR"
    },
    {
      "bufferView": 2,
      "byteOffset": 156,
      "componentType": 5126,
      "count": 65532,
      "max": [
        8.900700569152832,
        8.033100128173828,
        8.42757511138916
      ],
      "min": [
        -9.246118545532227,
        -10.077016830444336,
        -0.1409890055656433
      ],
      "type": "VEC3"
    },
    {
      "bufferView": 2,
      "byteOffset": 786540,
      "componentType": 5126,
      "count": 65532,
      "max": [
        0.9997356534004211,
        0.9997676014900208,
        0.9999990463256836
      ],
      "min": [
        -0.9999552965164185,
        -0.9999922513961792,
        -0.9997597336769104
      ],
      "type": "VEC3"
    },
    {
      "bufferView": 3,
      "componentType": 5126,
      "count": 65532,
      "max": [
        1.0,
        0.9963512420654297,
        0.9999930262565613,
        1.0
      ],
      "min": [
        -0.9999997019767761,
        -0.9991932511329651,
        -0.9999997019767761,
        -1.0
      ],
      "type": "VEC4"
    },
    {
      "bufferView": 1,
      "byteOffset": 104,
      "componentType": 5126,
      "count": 65532,
      "max": [
        0.999858021736145,
        0.9989010095596313
      ],
      "min": [
        0.00012199999764561653,
        0.00012399999832268804
      ],
      "type": "VEC2"
    },
    {
      "bufferView": 0,
      "byteOffset": 56,
      "componentType": 5125,
      "count": 241218,
      "type": "SCALAR"
    },
    {
      "bufferView": 2,
      "byteOffset": 1572924,
      "componentType": 5126,
      "count": 18108,
      "max": [
        8.762160301208496,
        6.1274189949035645,
        6.515641212463379
      ],
      "min": [
        -5.706849098205566,
        -9.509713172912598,
        -0.14028599858283997
      ],
      "type": "VEC3"
    },
    {
      "bufferView": 2,
      "byteOffset": 1790220,
      "componentType": 5126,
      "count": 18108,
      "max": [
        0.9998531341552734,
        0.9949949979782104,
        0.9999955892562866
      ],
      "min": [
        -0.9993436932563782,
        -0.9995153546333313,
        -0.984516441822052
      ],
      "type": "VEC3"
    },
    {
      "bufferView": 3,
      "byteOffset": 1048512,
      "componentType": 5126,
      "count": 18108,
      "max": [
        1.0,
        0.9989609718322754,
        0.9999830722808838,
        1.0
      ],
      "min": [
        -0.9999994039535522,
        -0.9888104796409607,
        -0.9999904036521912,
        -1.0
      ],
      "type": "VEC4"
    },
    {
      "bufferView": 1,
      "byteOffset": 524360,
      "componentType": 5126,
      "count": 18108,
      "max": [
        0.9998739957809448,
        0.9969480037689209
      ],
      "min": [
        0.00012199999764561653,
        0.00012700000661425292
      ],
      "type": "VEC2"
    },
    {
      "bufferView": 0,
      "byteOffset": 964928,
      "componentType": 5125,
      "count": 53262,
      "type": "SCALAR"
    }
  ],
  "asset": {
    "extras": {
      "author": "Dystopia (https://sketchfab.com/Dystopia)",
      "license": "CC-BY-4.0 (http://creativecommons.org/licenses/by/4.0/)",
      "source": "https://sketchfab.com/3d-models/tian-tan-buddha-e98a9498fc6e4b5baede7d5b2de99104",
      "title": "Tian Tan Buddha"
    },
    "generator": "Sketchfab-12.67.0",
    "version": "2.0"
  },
  "bufferViews": [
    {
      "buffer": 0,
      "byteLength": 1177976,
      "name": "floatBufferViews",
      "target": 34963
    },
    {
      "buffer": 0,
      "byteLength": 669224,
      "byteOffset": 1177976,
      "byteStride": 8,
      "name": "floatBufferViews",
      "target": 34962
    },
    {
      "buffer": 0,
      "byteLength": 2007516,
      "byteOffset": 1847200,
      "byteStride": 12,
      "name": "floatBufferViews",
      "target": 34962
    },
    {
      "buffer": 0,
      "byteLength": 1338240,
      "byteOffset": 3854716,
      "byteStride": 16,
      "name": "floatBufferViews",
      "target": 34962
    }
  ],
  "buffers": [
    {
      "byteLength": 5192956,
      "uri": "scene.bin"
    }
  ],
  "images": [
    {
      "uri": "textures/Budha_Model_Sketchfab_baseColor.jpeg"
    },
    {
      "uri": "textures/Budha_Model_Sketchfab_normal.jpeg"
    }
  ],
  "materials": [
    {
      "doubleSided": true,
      "name": "Budha_Model_Sketchfab",
      "normalTexture": {
        "index": 1
      },
      "pbrMetallicRoughness": {
        "baseColorTexture": {
          "index": 0
        },
        "metallicFactor": 0.0
      }
    }
  ],
  "meshes": [
    {
      "name": "Object_0",
      "primitives": [
        {
          "attributes": {
            "POSITION": 0,
            "TEXCOORD_0": 1
          },
          "indices": 2,
          "material": 0,
          "mode": 1
        }
      ]
    },
    {
      "name": "Object_1",
      "primitives": [
        {
          "attributes": {
            "NORMAL": 4,
            "POSITION": 3,
            "TANGENT": 5,
            "TEXCOORD_0": 6
          },
          "indices": 7,
          "material": 0,
          "mode": 4
        }
      ]
    },
    {
      "name": "Object_2",
      "primitives": [
        {
          "attributes": {
            "NORMAL": 9,
            "POSITION": 8,
            "TANGENT": 10,
            "TEXCOORD_0": 11
          },
          "indices": 12,
          "material": 0,
          "mode": 4
        }
      ]
    }
  ],
  "nodes": [
    {
      "children": [
        1
      ],
      "matrix": [
        1.0,
        0.0,
        0.0,
        0.0,
        0.0,
        2.220446049250313e-16,
        -1.0,
        0.0,
        0.0,
        1.0,
        2.220446049250313e-16,
        0.0,
        0.0,
        0.0,
        0.0,
        1.0
      ],
      "name": "Sketchfab_model"
    },
    {
      "children": [
        2,
        3,
        4
      ],
      "name": "Budha_Model_Sketchfab.obj.cleaner.materialmerger.gles"
    },
    {
      "mesh": 0,
      "name": "Object_2"
    },
    {
      "mesh": 1,
      "name": "Object_3"
    },
    {
      "mesh": 2,
      "name": "Object_4"
    }
  ],
  "samplers": [
    {
      "magFilter": 9729,
      "minFilter": 9987,
      "wrapS": 10497,
      "wrapT": 10497
    }
  ],
  "scene": 0,
  "scenes": [
    {
      "name": "Sketchfab_Scene",
      "nodes": [
        0
      ]
    }
  ],
  "textures": [
    {
      "sampler": 0,
      "source": 0
    },
    {
      "sampler": 0,
      "source": 1
    }
  ]
}
