{
  "accessors": [
    {
      "bufferView": 2,
      "componentType": 5126,
      "count": 65532,
      "max": [
        28.163206100463867,
        0.7166519165039063,
        38.38393783569336
      ],
      "min": [
        -32.399192810058594,
        -14.160282135009766,
        -33.51523208618164
      ],
      "type": "VEC3"
    },
    {
      "bufferView": 2,
      "byteOffset": 786384,
      "componentType": 5126,
      "count": 65532,
      "max": [
        0.9999611973762512,
        1.0,
        0.9999382495880127
      ],
      "min": [
        -0.9999719262123108,
        -0.9999995827674866,
        -0.9999589323997498
      ],
      "type": "VEC3"
    },
    {
      "bufferView": 1,
      "componentType": 5126,
      "count": 65532,
      "max": [
        0.9998626708984375,
        0.9964598417282104
      ],
      "min": [
        0.0001220703125,
        0.0001274539390578866
      ],
      "type": "VEC2"
    },
    {
      "bufferView": 0,
      "componentType": 5125,
      "count": 289884,
      "type": "SCALAR"
    },
    {
      "bufferView": 2,
      "byteOffset": 1572768,
      "componentType": 5126,
      "count": 65534,
      "max": [
        10.79012393951416,
        -1.4017791748046875,
        31.65680694580078
      ],
      "min": [
        -24.049036026000977,
        -17.109596252441406,
        -11.886903762817383
      ],
      "type": "VEC3"
    },
    {
      "bufferView": 2,
      "byteOffset": 2359176,
      "componentType": 5126,
      "count": 65534,
      "max": [
        0.9998404383659363,
        0.9855479001998901,
        0.9999078512191772
      ],
      "min": [
        -0.9999780654907227,
        -0.9999958872795105,
        -0.9999749660491943
      ],
      "type": "VEC3"
    },
    {
      "bufferView": 1,
      "byteOffset": 524256,
      "componentType": 5126,
      "count": 65534,
      "max": [
        0.9998773336410522,
        0.9993895292282104
      ],
      "min": [
        0.0001220703125,
        0.00013532175216823816
      ],
      "type": "VEC2"
    },
    {
      "bufferView": 0,
      "byteOffset": 1159536,
      "componentType": 5125,
      "count": 271746,
      "type": "SCALAR"
    },
    {
      "bufferView": 2,
      "byteOffset": 3145584,
      "componentType": 5126,
      "count": 65532,
      "max": [
        38.17543029785156,
        0.716522216796875,
        33.28664016723633
      ],
      "min": [
        -13.576913833618164,
        -17.12629508972168,
        -23.944353103637695
      ],
      "type": "VEC3"
    },
    {
      "bufferView": 2,
      "byteOffset": 3931968,
      "componentType": 5126,
      "count": 65532,
      "max": [
        0.9999980926513672,
        1.0,
        0.9997867345809937
      ],
      "min": [
        -0.9999191164970398,
        -0.9999989867210388,
        -0.9999589323997498
      ],
      "type": "VEC3"
    },
    {
      "bufferView": 1,
      "byteOffset": 1048528,
      "componentType": 5126,
      "count": 65532,
      "max": [
        0.9998699426651001,
        0.9998778104782104
      ],
      "min": [
        0.0001220703125,
        0.00012918247375637293
      ],
      "type": "VEC2"
    },
    {
      "bufferView": 0,
      "byteOffset": 2246520,
      "componentType": 5125,
      "count": 276477,
      "type": "SCALAR"
    },
    {
      "bufferView": 2,
      "byteOffset": 4718352,
      "componentType": 5126,
      "count": 65532,
      "max": [
        38.17543029785156,
        0.716522216796875,
        38.38393783569336
      ],
      "min": [
        -32.399192810058594,
        -13.987924575805664,
        -33.51523208618164
      ],
      "type": "VEC3"
    },
    {
      "bufferView": 2,
      "byteOffset": 5504736,
      "componentType": 5126,
      "count": 65532,
      "max": [
        0.9999714493751526,
        1.0,
        0.9998599290847778
      ],
      "min": [
        -0.9999583959579468,
        -0.9999995827674866,
        -0.9999589323997498
      ],
      "type": "VEC3"
    },
    {
      "bufferView": 1,
      "byteOffset": 1572784,
      "componentType": 5126,
      "count": 65532,
      "max": [
        0.999865710735321,
        0.9998778104782104
      ],
      "min": [
        0.0001220703125,
        0.00012524856720119715
      ],
      "type": "VEC2"
    },
    {
      "bufferView": 0,
      "byteOffset": 3352428,
      "componentType": 5125,
      "count": 246351,
      "type": "SCALAR"
    },
    {
      "bufferView": 2,
      "byteOffset": 6291120,
      "componentType": 5126,
      "count": 17953,
      "max": [
        8.122727394104004,
        -1.3402557373046875,
        26.772655487060547
      ],
      "min": [
        -28.446752548217773,
        -17.155094146728516,
        -11.507184982299805
      ],
      "type": "VEC3"
    },
    {
      "bufferView": 2,
      "byteOffset": 6506556,
      "componentType": 5126,
      "count": 17953,
      "max": [
        0.9995204210281372,
        0.9927384853363037,
        0.9999117851257324
      ],
      "min": [
        -0.9999256730079651,
        -0.999952495098114,
        -0.9999006390571594
      ],
      "type": "VEC3"
    },
    {
      "bufferView": 1,
      "byteOffset": 2097040,
      "componentType": 5126,
      "count": 17953,
      "max": [
        0.9998610615730286,
        0.9913665652275085
      ],
      "min": [
        0.0001220703125,
        0.00012274517212063074
      ],
      "type": "VEC2"
    },
    {
      "bufferView": 0,
      "byteOffset": 4337832,
      "componentType": 5125,
      "count": 53604,
      "type": "SCALAR"
    }
  ],
  "asset": {
    "extras": {
      "author": "FUD-UJEP (https://sketchfab.com/FUD-UJEP)",
      "license": "CC-BY-4.0 (http://creativecommons.org/licenses/by/4.0/)",
      "source": "https://sketchfab.com/3d-models/angkor-wat-be70b89f9c264fc19d63dca2ae78b224",
      "title": "Angkor Wat"
    },
    "generator": "Sketchfab-12.68.0",
    "version": "2.0"
  },
  "bufferViews": [
    {
      "buffer": 0,
      "byteLength": 4552248,
      "name": "floatBufferViews",
      "target": 34963
    },
    {
      "buffer": 0,
      "byteLength": 2240664,
      "byteOffset": 4552248,
      "byteStride": 8,
      "name": "floatBufferViews",
      "target": 34962
    },
    {
      "buffer": 0,
      "byteLength": 6721992,
      "byteOffset": 6792912,
      "byteStride": 12,
      "name": "floatBufferViews",
      "target": 34962
    }
  ],
  "buffers": [
    {
      "byteLength": 13514904,
      "uri": "scene.bin"
    }
  ],
  "extensionsUsed": [
    "KHR_materials_unlit"
  ],
  "images": [
    {
      "uri": "textures/Angkor_Wat_u1_v1_baseColor.jpeg"
    }
  ],
  "materials": [
    {
      "doubleSided": true,
      "extensions": {
        "KHR_materials_unlit": {}
      },
      "name": "Angkor_Wat_u1_v1",
      "pbrMetallicRoughness": {
        "baseColorTexture": {
          "index": 0
        },
        "metallicFactor": 0.0
      }
    }
  ],
  "meshes": [
    {
      "name": "Object_0",
      "primitives": [
        {
          "attributes": {
            "NORMAL": 1,
            "POSITION": 0,
            "TEXCOORD_0": 2
          },
          "indices": 3,
          "material": 0,
          "mode": 4
        }
      ]
    },
    {
      "name": "Object_1",
      "primitives": [
        {
          "attributes": {
            "NORMAL": 5,
            "POSITION": 4,
            "TEXCOORD_0": 6
          },
          "indices": 7,
          "material": 0,
          "mode": 4
        }
      ]
    },
    {
      "name": "Object_2",
      "primitives": [
        {
          "attributes": {
            "NORMAL": 9,
            "POSITION": 8,
            "TEXCOORD_0": 10
          },
          "indices": 11,
          "material": 0,
          "mode": 4
        }
      ]
    },
    {
      "name": "Object_3",
      "primitives": [
        {
          "attributes": {
            "NORMAL": 13,
            "POSITION": 12,
            "TEXCOORD_0": 14
          },
          "indices": 15,
          "material": 0,
          "mode": 4
        }
      ]
    },
    {
      "name": "Object_4",
      "primitives": [
        {
          "attributes": {
            "NORMAL": 17,
            "POSITION": 16,
            "TEXCOORD_0": 18
          },
          "indices": 19,
          "material": 0,
          "mode": 4
        }
      ]
    }
  ],
  "nodes": [
    {
      "children": [
        1
      ],
      "matrix": [
        1.3829474468249714,
        9.782547647923911e-17,
        -0.6305562866175762,
        0.0,
        0.004703886895436327,
        -1.5198737501621906,
        0.010316649463764866,
        0.0,
        -0.6305387566676046,
        -0.011338422317692358,
        -1.3829089443508735,
        0.0,
        1.2955946922302246,
        -5.766480445861819,
        11.688093185424803,
        1.0
      ],
      "name": "Sketchfab_model"
    },
    {
      "children": [
        2,
        3,
        4,
        5,
        6
      ],
      "name": "Angkor_Wat.obj.cleaner.materialmerger.gles"
    },
    {
      "mesh": 0,
      "name": "Object_2"
    },
    {
      "mesh": 1,
      "name": "Object_3"
    },
    {
      "mesh": 2,
      "name": "Object_4"
    },
    {
      "mesh": 3,
      "name": "Object_5"
    },
    {
      "mesh": 4,
      "name": "Object_6"
    }
  ],
  "samplers": [
    {
      "magFilter": 9729,
      "minFilter": 9987,
      "wrapS": 10497,
      "wrapT": 10497
    }
  ],
  "scene": 0,
  "scenes": [
    {
      "name": "Sketchfab_Scene",
      "nodes": [
        0
      ]
    }
  ],
  "textures": [
    {
      "sampler": 0,
      "source": 0
    }
  ]
}
