{
  "accessors": [
    {
      "bufferView": 2,
      "componentType": 5126,
      "count": 2349,
      "max": [
        2444.83935546875,
        2504.7314453125,
        3632.297119140625
      ],
      "min": [
        -2443.0615234375,
        -0.06892678141593933,
        -3647.70947265625
      ],
      "type": "VEC3"
    },
    {
      "bufferView": 2,
      "byteOffset": 28188,
      "componentType": 5126,
      "count": 2349,
      "max": [
        1.0,
        1.0,
        1.0
      ],
      "min": [
        -1.0,
        -1.0,
        -1.0
      ],
      "type": "VEC3"
    },
    {
      "bufferView": 1,
      "componentType": 5126,
      "count": 2349,
      "max": [
        0.9933865070343018,
        0.9938780069351196
      ],
      "min": [
        0.52690589427948,
        0.006805583834648132
      ],
      "type": "VEC2"
    },
    {
      "bufferView": 0,
      "componentType": 5125,
      "count": 3768,
      "type": "SCALAR"
    }
  ],
  "asset": {
    "extras": {
      "author": "ajmalsaleem88 (https://sketchfab.com/ajmalsaleem88)",
      "license": "CC-BY-4.0 (http://creativecommons.org/licenses/by/4.0/)",
      "source": "https://sketchfab.com/3d-models/colosseum-rome-italy-859ce2dc0e514db989e21b1be535bf2e",
      "title": "Colosseum_Rome_Italy"
    },
    "generator": "Sketchfab-12.65.0",
    "version": "2.0"
  },
  "bufferViews": [
    {
      "buffer": 0,
      "byteLength": 15072,
      "name": "floatBufferViews",
      "target": 34963
    },
    {
      "buffer": 0,
      "byteLength": 18792,
      "byteOffset": 15072,
      "byteStride": 8,
      "name": "floatBufferViews",
      "target": 34962
    },
    {
      "buffer": 0,
      "byteLength": 56376,
      "byteOffset": 33864,
      "byteStride": 12,
      "name": "floatBufferViews",
      "target": 34962
    }
  ],
  "buffers": [
    {
      "byteLength": 90240,
      "uri": "scene.bin"
    }
  ],
  "images": [
    {
      "uri": "textures/Colosseum_Rome_Italy_baseColor.png"
    }
  ],
  "materials": [
    {
      "doubleSided": true,
      "name": "Colosseum_Rome_Italy",
      "pbrMetallicRoughness": {
        "baseColorTexture": {
          "index": 0
        },
        "metallicFactor": 0.0,
        "roughnessFactor": 0.0
      }
    }
  ],
  "meshes": [
    {
      "name": "Colosseum_Rome_Colosseum_Rome_Italy_0",
      "primitives": [
        {
          "attributes": {
            "NORMAL": 1,
            "POSITION": 0,
            "TEXCOORD_0": 2
          },
          "indices": 3,
          "material": 0,
          "mode": 4
        }
      ]
    }
  ],
  "nodes": [
    {
      "children": [
        1
      ],
      "matrix": [
        1.3333333730697632,
        0.0,
        0.0,
        0.0,
        0.0,
        -6.737620724055822e-16,
        1.3333333730697632,
        0.0,
        0.0,
        -1.3333333730697632,
        -6.737620724055822e-16,
        0.0,
        0.0,
        -25.046634674072266,
        0.15411621332168024,
        1.0
      ],
      "name": "Sketchfab_model"
    },
    {
      "children": [
        2
      ],
      "matrix": [
        0.009999999776482582,
        0.0,
        0.0,
        0.0,
        0.0,
        -0.009999999776482582,
        0.0,
        0.0,
        0.0,
        0.0,
        -0.009999999776482582,
        0.0,
        0.0,
        0.0,
        0.0,
        1.0
      ],
      "name": "3457932199d24952839d78db3f068a5e.fbx"
    },
    {
      "children": [
        3
      ],
      "name": "RootNode"
    },
    {
      "children": [
        4
      ],
      "matrix": [
        1.0,
        0.0,
        0.0,
        0.0,
        0.0,
        2.220446049250313e-16,
        1.0,
        0.0,
        0.0,
        -1.0,
        2.220446049250313e-16,
        0.0,
        0.0,
        0.0,
        0.0,
        1.0
      ],
      "name": "Colosseum_Rome"
    },
    {
      "mesh": 0,
      "name": "Colosseum_Rome_Colosseum_Rome_Italy_0"
    }
  ],
  "samplers": [
    {
      "magFilter": 9729,
      "minFilter": 9987,
      "wrapS": 10497,
      "wrapT": 10497
    }
  ],
  "scene": 0,
  "scenes": [
    {
      "name": "Sketchfab_Scene",
      "nodes": [
        0
      ]
    }
  ],
  "textures": [
    {
      "sampler": 0,
      "source": 0
    }
  ]
}
