<svg xmlns="http://www.w3.org/2000/svg" xmlns:xlink="http://www.w3.org/1999/xlink" width="3000" zoomAndPan="magnify" viewBox="0 0 112.5 37.5" height="1500" preserveAspectRatio="xMidYMid meet" version="1.0"><defs><g/><clipPath id="id1"><path d="M 15.421875 9 L 61.53125 9 L 61.53125 31.121094 L 15.421875 31.121094 Z M 15.421875 9 " clip-rule="nonzero"/></clipPath><clipPath id="id2"><path d="M 16.660156 19.398438 L 61.488281 19.398438 L 61.488281 31.121094 L 16.660156 31.121094 Z M 16.660156 19.398438 " clip-rule="nonzero"/></clipPath><clipPath id="id3"><path d="M 17.035156 23.09375 L 61.238281 23.09375 L 61.238281 31.121094 L 17.035156 31.121094 Z M 17.035156 23.09375 " clip-rule="nonzero"/></clipPath><clipPath id="id4"><path d="M 17.570312 25.355469 L 60.207031 25.355469 L 60.207031 31.121094 L 17.570312 31.121094 Z M 17.570312 25.355469 " clip-rule="nonzero"/></clipPath><clipPath id="id5"><path d="M 35 5.84375 L 55 5.84375 L 55 22 L 35 22 Z M 35 5.84375 " clip-rule="nonzero"/></clipPath><clipPath id="id6"><path d="M 14.765625 17 L 21 17 L 21 21 L 14.765625 21 Z M 14.765625 17 " clip-rule="nonzero"/></clipPath><clipPath id="id7"><path d="M 53.019531 14.304688 L 63.046875 14.304688 L 63.046875 17.714844 L 53.019531 17.714844 Z M 53.019531 14.304688 " clip-rule="nonzero"/></clipPath></defs><g clip-path="url(#id1)"><path fill="rgb(45.489502%, 85.879517%, 96.859741%)" d="M 59.769531 28.1875 C 60.976562 26.308594 61.597656 24.261719 61.476562 22.148438 C 61.027344 14.210938 50.367188 8.351562 37.664062 9.0625 C 24.957031 9.773438 15.023438 16.785156 15.476562 24.722656 C 15.609375 27.078125 16.644531 29.25 18.363281 31.121094 C 22.460938 30.320312 36.613281 27.964844 59.769531 28.1875 " fill-opacity="1" fill-rule="nonzero"/></g><path fill="rgb(100%, 89.408875%, 86.268616%)" d="M 56.140625 23.109375 C 54.261719 23.503906 52.160156 24.320312 50.21875 24.355469 C 49.40625 24.375 48.597656 24.085938 48.636719 23.136719 C 48.695312 21.738281 50.722656 20.679688 49.148438 19.34375 C 47.285156 17.761719 43.644531 18.171875 41.378906 18.335938 C 37.039062 18.660156 32.613281 19.648438 28.523438 21.117188 C 26 22.023438 23.539062 23.164062 21.207031 24.484375 C 19.484375 25.457031 17.582031 26.683594 16.195312 27.792969 C 16.582031 28.722656 17.117188 29.609375 17.785156 30.441406 C 25.71875 26.476562 34.625 25.804688 43.394531 26.03125 C 49 26.175781 54.792969 26.277344 60.484375 26.902344 C 61.199219 25.414062 61.558594 23.839844 61.480469 22.222656 C 59.6875 22.414062 57.910156 22.734375 56.140625 23.109375 " fill-opacity="1" fill-rule="nonzero"/><path fill="rgb(100%, 89.408875%, 86.268616%)" d="M 35.183594 24.554688 C 37.890625 24.335938 40.597656 24.234375 43.3125 24.269531 C 44.757812 24.289062 46.203125 24.347656 47.644531 24.449219 C 47.894531 23.035156 47.894531 21.558594 47.546875 20.027344 C 46.664062 16.132812 43.484375 13.539062 39.671875 13.308594 C 36.027344 13.089844 32.199219 15.097656 30.875 18.785156 C 30.210938 20.644531 30.195312 22.820312 30.710938 24.84375 C 32.222656 24.6875 33.769531 24.671875 35.183594 24.554688 " fill-opacity="1" fill-rule="nonzero"/><g clip-path="url(#id2)"><path fill="rgb(100%, 70.588684%, 70.588684%)" d="M 53.113281 24.496094 C 51.773438 24.804688 46.324219 25.839844 48.089844 22.785156 C 48.550781 21.992188 49.753906 20.980469 48.300781 20.269531 C 47.871094 20.0625 44.988281 19.535156 42.742188 19.433594 C 39.128906 19.277344 35.535156 19.804688 32.097656 20.863281 C 28.964844 21.828125 25.851562 23.046875 22.976562 24.621094 C 20.785156 25.820312 18.410156 27.460938 16.667969 28.773438 C 17.121094 29.597656 17.6875 30.382812 18.363281 31.121094 C 22.460938 30.320312 36.613281 27.964844 59.769531 28.1875 C 60.808594 26.5625 61.414062 24.816406 61.484375 23.011719 C 58.722656 23.265625 55.964844 23.839844 53.113281 24.496094 " fill-opacity="1" fill-rule="nonzero"/></g><g clip-path="url(#id3)"><path fill="rgb(100%, 52.549744%, 76.469421%)" d="M 53.855469 25.089844 C 50.617188 25.398438 47.535156 26.101562 44.363281 26.777344 C 42.304688 27.214844 39.582031 27.859375 37.554688 26.96875 C 36.539062 26.523438 36.351562 25.933594 36.53125 24.921875 C 36.578125 24.664062 36.882812 24.199219 36.789062 23.933594 C 36.523438 23.164062 35.105469 23.15625 34.46875 23.121094 C 32.878906 23.035156 31.269531 23.347656 29.738281 23.75 C 26.878906 24.507812 24.019531 25.652344 21.386719 27 C 19.960938 27.726562 18.625 28.492188 17.0625 29.433594 C 17.4375 30.015625 17.871094 30.582031 18.363281 31.121094 C 22.460938 30.320312 36.613281 27.964844 59.769531 28.1875 C 60.445312 27.132812 60.929688 26.023438 61.210938 24.882812 C 58.765625 24.765625 56.300781 24.859375 53.855469 25.089844 " fill-opacity="1" fill-rule="nonzero"/></g><g clip-path="url(#id4)"><path fill="rgb(0%, 45.878601%, 52.938843%)" d="M 57.625 27.527344 C 56.195312 27.289062 56.015625 26.011719 54.914062 25.777344 C 53.601562 25.503906 51.585938 26.066406 50.332031 26.292969 C 48.75 26.578125 47.175781 26.921875 45.585938 27.179688 C 42.777344 27.632812 39.945312 27.910156 37.097656 27.964844 C 35.703125 27.992188 32.789062 28.460938 31.773438 27.167969 C 31.3125 26.574219 31.894531 25.929688 30.875 25.511719 C 30.085938 25.183594 28.875 25.550781 28.101562 25.753906 C 24.40625 26.722656 20.933594 28.453125 17.578125 30.164062 C 17.824219 30.492188 18.078125 30.8125 18.363281 31.121094 C 22.460938 30.320312 36.613281 27.964844 59.769531 28.1875 C 59.910156 27.964844 60.042969 27.734375 60.167969 27.507812 C 59.3125 27.597656 58.4375 27.664062 57.625 27.527344 " fill-opacity="1" fill-rule="nonzero"/></g><g clip-path="url(#id5)"><path fill="rgb(0%, 45.878601%, 52.938843%)" d="M 44.148438 15.089844 C 44.148438 15.089844 47.320312 17.316406 45.757812 21.039062 C 45.757812 21.039062 49.261719 17.582031 44.964844 14.554688 C 44.964844 14.554688 50.875 13.9375 50.976562 22 C 50.976562 22 53.433594 17.695312 51.070312 14.855469 C 48.707031 12.015625 45.089844 13.726562 45.089844 13.726562 C 45.089844 13.726562 50.117188 9.003906 54.40625 12.609375 C 54.40625 12.609375 53.617188 8.90625 49.65625 9.359375 C 45.695312 9.8125 44.6875 13.175781 44.6875 13.175781 C 44.6875 13.175781 47.605469 10.117188 45.589844 5.84375 C 45.589844 5.84375 45.570312 11.109375 44.039062 13.8125 C 44.039062 13.8125 44.929688 7.769531 40.78125 7.421875 C 36.632812 7.074219 36.097656 10.394531 36.097656 10.394531 C 36.097656 10.394531 38.273438 8.335938 40.867188 9.753906 C 43.457031 11.171875 43.496094 14.328125 43.496094 14.328125 C 43.496094 14.328125 41.460938 11.226562 38.164062 12.558594 C 34.867188 13.890625 35.652344 17.566406 35.652344 17.566406 C 35.652344 17.566406 37.675781 12.367188 43.085938 15.066406 C 43.085938 15.066406 39.980469 14.507812 38.542969 16.972656 L 44.148438 15.089844 " fill-opacity="1" fill-rule="nonzero"/></g><path fill="rgb(0%, 45.878601%, 52.938843%)" d="M 43.5 14.835938 C 43.5 14.835938 44.480469 21.738281 31.714844 29.292969 L 35.570312 28.953125 C 35.570312 28.953125 43.601562 23.058594 44.589844 14.742188 L 43.5 14.835938 " fill-opacity="1" fill-rule="nonzero"/><path fill="rgb(0%, 45.878601%, 52.938843%)" d="M 30.371094 13.246094 C 30.371094 13.246094 33.621094 13.652344 33.765625 16.277344 C 33.765625 16.277344 35.292969 11.84375 30.960938 12.46875 C 30.960938 12.46875 34.695312 10.195312 36.664062 14.484375 C 36.664062 14.484375 37.335938 10.046875 33.835938 10.035156 C 31.03125 10.023438 30.332031 12.40625 30.332031 12.40625 C 30.332031 12.40625 33.664062 7.636719 27.910156 7.34375 C 27.910156 7.34375 31.210938 9.089844 29.867188 12.902344 C 29.867188 12.902344 30.1875 9.78125 28.078125 8.804688 C 25.964844 7.828125 23.90625 9.992188 23.90625 9.992188 C 23.90625 9.992188 27.839844 9.113281 29.484375 12.851562 C 29.484375 12.851562 28.460938 12.253906 26.601562 13.429688 C 24.746094 14.601562 25.414062 16.351562 25.414062 16.351562 C 25.414062 16.351562 26.601562 13.429688 29.824219 13.320312 C 29.824219 13.320312 27.742188 13.992188 26.992188 15.902344 L 30.371094 13.246094 " fill-opacity="1" fill-rule="nonzero"/><path fill="rgb(0%, 45.878601%, 52.938843%)" d="M 29.855469 13.070312 C 29.824219 13.320312 35.039062 21.019531 31.207031 29.339844 L 34.691406 29.023438 C 34.691406 29.023438 34.355469 18.730469 30.425781 13.019531 L 29.855469 13.070312 " fill-opacity="1" fill-rule="nonzero"/><path fill="rgb(65.098572%, 92.549133%, 100%)" d="M 27.859375 19.019531 C 27.328125 19.625 23.160156 21.5 24.117188 20.125 C 24.773438 19.1875 20.351562 21.285156 19.023438 20.941406 C 17.699219 20.59375 18.039062 19.128906 20.316406 19.097656 C 20.316406 19.097656 20.25 18.035156 21.78125 17.589844 C 23 17.238281 23.597656 18.246094 23.597656 18.246094 C 23.597656 18.246094 24.53125 17.082031 25.699219 17.878906 C 27.125 17.828125 28.632812 18.140625 27.859375 19.019531 " fill-opacity="1" fill-rule="nonzero"/><g clip-path="url(#id6)"><path fill="rgb(65.098572%, 92.549133%, 100%)" d="M 20.011719 17.6875 C 20.011719 17.6875 19.714844 18.207031 19.746094 18.671875 C 19.746094 18.671875 17.550781 18.988281 17.65625 20.164062 C 17.65625 20.164062 15.167969 21.023438 14.988281 20.148438 C 14.808594 19.273438 15.792969 19.015625 15.792969 19.015625 C 15.792969 19.015625 15.589844 17.328125 17.675781 17.867188 C 17.675781 17.867188 18.453125 17.210938 20.011719 17.6875 " fill-opacity="1" fill-rule="nonzero"/></g><g clip-path="url(#id7)"><path fill="rgb(65.098572%, 92.549133%, 100%)" d="M 62.34375 15.066406 C 62.722656 15.417969 63.609375 16.332031 62.527344 17.074219 C 61.441406 17.816406 59.164062 16.34375 58.722656 16.679688 C 58.285156 17.015625 59.839844 16.96875 59.265625 17.515625 C 58.691406 18.0625 56.148438 17.109375 55.414062 17.371094 C 54.679688 17.636719 53.15625 17.558594 53.03125 16.765625 C 52.90625 15.972656 54.21875 15.457031 54.871094 15.742188 C 54.871094 15.742188 55.605469 13.855469 58.078125 14.691406 C 58.078125 14.691406 58.878906 13.800781 59.863281 14.847656 C 59.863281 14.847656 61.527344 14.320312 62.34375 15.066406 " fill-opacity="1" fill-rule="nonzero"/></g><g fill="rgb(0%, 0%, 0%)" fill-opacity="1"><g transform="translate(82.507048, 26.532208)"><g><path d="M 3.828125 -4.664062 C 3.578125 -4.6875 3.339844 -4.707031 3.089844 -4.695312 C 2.550781 -4.679688 2.003906 -4.644531 1.464844 -4.613281 C 1.390625 -4.613281 1.320312 -4.628906 1.230469 -4.636719 C 1.28125 -4.832031 1.328125 -5.007812 1.371094 -5.175781 C 1.414062 -5.34375 1.515625 -5.496094 1.507812 -5.683594 C 1.332031 -5.757812 1.210938 -5.699219 1.136719 -5.5625 C 1.050781 -5.394531 0.976562 -5.21875 0.910156 -5.042969 C 0.859375 -4.890625 0.816406 -4.730469 0.765625 -4.5625 C 0.554688 -4.535156 0.355469 -4.511719 0.160156 -4.480469 C -0.175781 -4.4375 -0.503906 -4.394531 -0.832031 -4.335938 C -0.953125 -4.316406 -1.09375 -4.308594 -1.179688 -4.175781 C -1.003906 -4.082031 -1.003906 -4.082031 -0.902344 -4.097656 C -0.4375 -4.152344 0.0234375 -4.210938 0.480469 -4.269531 C 0.539062 -4.277344 0.605469 -4.257812 0.679688 -4.25 C 0.65625 -4.140625 0.632812 -4.050781 0.613281 -3.972656 C 0.34375 -2.929688 0.0859375 -1.878906 -0.125 -0.832031 C -0.285156 -0.0585938 -0.4375 0.714844 -0.523438 1.5 C -0.53125 1.609375 -0.53125 1.71875 -0.523438 1.828125 C -0.515625 1.878906 -0.488281 1.9375 -0.394531 1.925781 C -0.371094 1.835938 -0.34375 1.75 -0.320312 1.65625 C -0.285156 1.457031 -0.246094 1.261719 -0.210938 1.0625 C 0.167969 -0.691406 0.671875 -2.417969 1.109375 -4.160156 C 1.121094 -4.226562 1.160156 -4.277344 1.1875 -4.335938 C 2.128906 -4.425781 3.046875 -4.535156 3.988281 -4.589844 C 3.9375 -4.621094 3.878906 -4.664062 3.828125 -4.664062 Z M 3.828125 -4.664062 "/></g></g></g><g fill="rgb(0%, 0%, 0%)" fill-opacity="1"><g transform="translate(83.709579, 26.532208)"><g><path d="M 1.734375 -0.742188 C 1.597656 -0.699219 1.457031 -0.65625 1.304688 -0.714844 C 1.347656 -0.824219 1.382812 -0.925781 1.421875 -1.019531 C 1.507812 -1.261719 1.582031 -1.5 1.589844 -1.757812 C 1.601562 -2.085938 1.480469 -2.273438 1.246094 -2.304688 C 1.179688 -2.308594 1.113281 -2.304688 1.050781 -2.289062 C 0.84375 -2.246094 0.671875 -2.113281 0.511719 -1.9375 C 0.34375 -1.757812 0.21875 -1.546875 0.226562 -1.261719 C 0.144531 -1.128906 0.0664062 -1.003906 -0.0078125 -0.882812 C -0.0859375 -0.722656 -0.167969 -0.554688 -0.195312 -0.363281 C -0.234375 -0.101562 -0.167969 0.0742188 0.015625 0.132812 C 0.125 0.167969 0.246094 0.167969 0.355469 0.144531 C 0.53125 0.117188 0.691406 0 0.839844 -0.144531 C 0.953125 -0.253906 1.070312 -0.371094 1.203125 -0.503906 C 1.691406 -0.515625 1.75 -0.53125 1.929688 -0.714844 C 1.820312 -0.78125 1.820312 -0.78125 1.734375 -0.742188 Z M 0.226562 -0.015625 C 0.152344 -0.0078125 0.09375 -0.0507812 0.09375 -0.152344 C 0.0859375 -0.246094 0.09375 -0.351562 0.117188 -0.445312 C 0.167969 -0.632812 0.234375 -0.816406 0.351562 -0.992188 C 0.453125 -0.902344 0.523438 -0.832031 0.605469 -0.765625 C 0.683594 -0.707031 0.773438 -0.648438 0.859375 -0.589844 C 0.734375 -0.335938 0.414062 -0.0507812 0.226562 -0.015625 Z M 1.027344 -0.816406 C 0.851562 -0.902344 0.742188 -1.027344 0.691406 -1.253906 C 0.664062 -1.382812 0.664062 -1.488281 0.722656 -1.601562 C 0.84375 -1.835938 1 -2.027344 1.203125 -2.105469 C 1.296875 -2.054688 1.3125 -1.9375 1.3125 -1.828125 C 1.3125 -1.457031 1.210938 -1.121094 1.027344 -0.816406 Z M 1.027344 -0.816406 "/></g></g></g><g fill="rgb(0%, 0%, 0%)" fill-opacity="1"><g transform="translate(85.444137, 26.532208)"><g><path d="M 2.9375 -1.09375 C 2.703125 -0.910156 2.46875 -0.722656 2.238281 -0.53125 C 2.195312 -0.503906 2.148438 -0.460938 2.085938 -0.503906 C 2.070312 -0.53125 2.054688 -0.5625 2.054688 -0.589844 C 2.054688 -0.683594 2.054688 -0.773438 2.0625 -0.859375 C 2.078125 -1.078125 2.105469 -1.304688 2.113281 -1.523438 C 2.121094 -1.675781 2.046875 -1.75 1.902344 -1.769531 C 1.765625 -1.785156 1.632812 -1.765625 1.53125 -1.660156 C 1.449219 -1.582031 1.378906 -1.5 1.304688 -1.414062 C 1.121094 -1.179688 0.941406 -0.941406 0.75 -0.707031 C 0.625 -0.554688 0.480469 -0.40625 0.34375 -0.269531 C 0.3125 -0.242188 0.253906 -0.234375 0.175781 -0.210938 C 0.191406 -0.320312 0.183594 -0.394531 0.203125 -0.464844 C 0.285156 -0.816406 0.371094 -1.160156 0.453125 -1.5 C 0.480469 -1.640625 0.539062 -1.777344 0.503906 -1.917969 C 0.371094 -1.976562 0.304688 -1.910156 0.269531 -1.820312 C 0.0585938 -1.355469 -0.109375 -0.875 -0.195312 -0.371094 C -0.242188 -0.101562 -0.117188 0.0273438 0.160156 0.015625 C 0.253906 0.0078125 0.355469 -0.0078125 0.445312 -0.0507812 C 0.5625 -0.109375 0.679688 -0.183594 0.773438 -0.277344 C 0.984375 -0.488281 1.179688 -0.714844 1.382812 -0.933594 C 1.441406 -1 1.492188 -1.0625 1.601562 -1.179688 C 1.589844 -1.027344 1.582031 -0.941406 1.582031 -0.859375 C 1.574219 -0.765625 1.566406 -0.679688 1.574219 -0.589844 C 1.601562 -0.296875 1.785156 -0.152344 2.078125 -0.195312 C 2.164062 -0.210938 2.253906 -0.242188 2.324219 -0.285156 C 2.675781 -0.523438 2.988281 -0.800781 3.234375 -1.152344 C 3.257812 -1.179688 3.257812 -1.222656 3.265625 -1.289062 C 3.105469 -1.269531 3.03125 -1.167969 2.9375 -1.09375 Z M 2.9375 -1.09375 "/></g></g></g><g fill="rgb(0%, 0%, 0%)" fill-opacity="1"><g transform="translate(88.359363, 26.532208)"><g><path d="M 2.136719 -2.0625 C 2.085938 -2.253906 1.96875 -2.339844 1.769531 -2.324219 C 1.617188 -2.308594 1.492188 -2.253906 1.390625 -2.136719 C 1.210938 -1.917969 1.027344 -1.691406 0.839844 -1.472656 C 0.792969 -1.414062 0.742188 -1.355469 0.648438 -1.253906 C 0.679688 -1.65625 0.867188 -1.953125 0.890625 -2.308594 C 0.742188 -2.363281 0.65625 -2.339844 0.597656 -2.238281 C 0.554688 -2.171875 0.515625 -2.097656 0.488281 -2.035156 C 0.261719 -1.5 0.0351562 -0.96875 -0.191406 -0.4375 C -0.226562 -0.351562 -0.253906 -0.253906 -0.277344 -0.160156 C -0.3125 -0.0078125 -0.242188 0.0820312 -0.0820312 0.0820312 C 0.0273438 0.0820312 0.136719 0.0507812 0.21875 -0.0351562 C 0.3125 -0.125 0.40625 -0.21875 0.488281 -0.328125 C 0.65625 -0.539062 0.800781 -0.757812 0.960938 -0.96875 C 1.160156 -1.230469 1.363281 -1.492188 1.574219 -1.757812 C 1.617188 -1.816406 1.675781 -1.859375 1.757812 -1.925781 C 1.792969 -1.816406 1.820312 -1.734375 1.84375 -1.65625 C 1.867188 -1.589844 1.875 -1.523438 1.910156 -1.464844 C 1.929688 -1.429688 1.988281 -1.390625 2.035156 -1.382812 C 2.054688 -1.382812 2.105469 -1.4375 2.121094 -1.472656 C 2.179688 -1.667969 2.179688 -1.867188 2.136719 -2.0625 Z M 2.136719 -2.0625 "/></g></g></g><g fill="rgb(0%, 0%, 0%)" fill-opacity="1"><g transform="translate(90.910185, 26.532208)"><g><path d="M 2.46875 -1.902344 C 2.324219 -1.84375 2.289062 -1.734375 2.230469 -1.648438 C 1.875 -1.171875 1.449219 -0.773438 0.941406 -0.460938 C 0.800781 -0.371094 0.664062 -0.285156 0.464844 -0.269531 C 0.4375 -0.34375 0.402344 -0.40625 0.394531 -0.480469 C 0.394531 -0.570312 0.40625 -0.65625 0.429688 -0.742188 C 0.523438 -1.050781 0.621094 -1.355469 0.722656 -1.660156 C 0.75 -1.765625 0.808594 -1.867188 0.792969 -1.976562 C 0.546875 -2.0625 0.472656 -2.046875 0.363281 -1.867188 C 0.160156 -1.507812 0 -1.128906 -0.09375 -0.730469 C -0.101562 -0.683594 -0.109375 -0.640625 -0.117188 -0.597656 C -0.160156 -0.242188 -0.0078125 -0.0507812 0.355469 -0.0351562 C 0.613281 -0.0234375 0.839844 -0.0859375 1.058594 -0.21875 C 1.558594 -0.53125 1.988281 -0.925781 2.308594 -1.4375 C 2.375 -1.539062 2.425781 -1.648438 2.46875 -1.765625 C 2.484375 -1.792969 2.46875 -1.835938 2.46875 -1.902344 Z M 0.933594 -2.660156 C 0.96875 -2.6875 1 -2.71875 1.019531 -2.753906 C 1.070312 -2.863281 1.113281 -2.972656 1.179688 -3.105469 C 0.976562 -3.164062 0.800781 -3.15625 0.632812 -3.0625 C 0.503906 -2.988281 0.460938 -2.820312 0.523438 -2.71875 C 0.613281 -2.585938 0.808594 -2.558594 0.933594 -2.660156 Z M 0.933594 -2.660156 "/></g></g></g><g fill="rgb(0%, 0%, 0%)" fill-opacity="1"><g transform="translate(93.031011, 26.532208)"><g><path d="M 2.863281 -1.667969 C 2.726562 -1.574219 2.59375 -1.472656 2.46875 -1.363281 C 2.054688 -0.976562 1.648438 -0.582031 1.230469 -0.195312 C 1.152344 -0.125 1.070312 -0.0507812 0.976562 0.0351562 C 0.800781 -0.21875 0.691406 -0.480469 0.621094 -0.757812 C 0.554688 -1 0.589844 -1.222656 0.699219 -1.4375 C 0.851562 -1.742188 1.09375 -1.96875 1.414062 -2.105469 C 1.464844 -2.128906 1.53125 -2.105469 1.609375 -2.105469 C 1.582031 -1.9375 1.558594 -1.800781 1.523438 -1.597656 C 1.625 -1.625 1.710938 -1.625 1.742188 -1.660156 C 1.835938 -1.769531 1.917969 -1.886719 1.980469 -2.019531 C 2.035156 -2.128906 1.988281 -2.238281 1.875 -2.296875 C 1.808594 -2.324219 1.726562 -2.347656 1.65625 -2.355469 C 1.058594 -2.40625 0.351562 -1.945312 0.152344 -1.382812 C 0.0859375 -1.195312 0.0507812 -0.992188 0.125 -0.792969 C 0.191406 -0.589844 0.269531 -0.378906 0.363281 -0.183594 C 0.453125 0.0078125 0.554688 0.191406 0.648438 0.378906 C 0.5625 0.472656 0.488281 0.554688 0.414062 0.640625 C 0.269531 0.832031 0.117188 1.019531 -0.0234375 1.222656 C -0.0820312 1.3125 -0.109375 1.429688 -0.125 1.539062 C -0.144531 1.691406 -0.0585938 1.777344 0.109375 1.800781 C 0.242188 1.816406 0.371094 1.785156 0.496094 1.71875 C 0.679688 1.617188 0.84375 1.492188 0.984375 1.328125 C 1.144531 1.144531 1.230469 0.933594 1.195312 0.683594 C 1.1875 0.632812 1.179688 0.574219 1.171875 0.515625 C 1.261719 0.421875 1.339844 0.335938 1.421875 0.246094 C 1.9375 -0.277344 2.457031 -0.792969 2.964844 -1.320312 C 3.046875 -1.398438 3.125 -1.472656 3.199219 -1.558594 C 3.230469 -1.597656 3.234375 -1.648438 3.257812 -1.699219 C 3.097656 -1.777344 2.972656 -1.757812 2.863281 -1.667969 Z M 0.75 1.253906 C 0.664062 1.40625 0.539062 1.523438 0.34375 1.550781 C 0.445312 1.304688 0.605469 1.113281 0.808594 0.917969 C 0.867188 1.070312 0.808594 1.167969 0.75 1.253906 Z M 0.75 1.253906 "/></g></g></g><g fill="rgb(0%, 0%, 0%)" fill-opacity="1"><g transform="translate(95.603697, 26.532208)"><g><path d="M 5.027344 -1.488281 C 4.964844 -1.429688 4.890625 -1.363281 4.816406 -1.296875 C 4.570312 -1.078125 4.328125 -0.851562 4.074219 -0.632812 C 4.046875 -0.605469 3.992188 -0.589844 3.90625 -0.546875 C 3.9375 -0.679688 3.9375 -0.765625 3.964844 -0.84375 C 4.074219 -1.1875 4.191406 -1.523438 4.300781 -1.859375 C 4.335938 -1.980469 4.371094 -2.113281 4.386719 -2.246094 C 4.402344 -2.347656 4.335938 -2.414062 4.242188 -2.433594 C 4.089844 -2.464844 3.949219 -2.457031 3.839844 -2.332031 C 3.722656 -2.214844 3.613281 -2.085938 3.503906 -1.960938 C 3.265625 -1.683594 3.011719 -1.429688 2.703125 -1.210938 C 2.660156 -1.179688 2.617188 -1.113281 2.527344 -1.167969 C 2.550781 -1.378906 2.636719 -1.574219 2.695312 -1.769531 C 2.734375 -1.894531 2.769531 -2.027344 2.792969 -2.15625 C 2.804688 -2.296875 2.746094 -2.375 2.617188 -2.398438 C 2.515625 -2.417969 2.398438 -2.425781 2.296875 -2.398438 C 2.1875 -2.367188 2.085938 -2.308594 2.003906 -2.238281 C 1.757812 -2.019531 1.515625 -1.785156 1.28125 -1.550781 C 1.003906 -1.277344 0.742188 -0.992188 0.472656 -0.707031 C 0.429688 -0.664062 0.378906 -0.632812 0.269531 -0.554688 C 0.304688 -0.691406 0.320312 -0.765625 0.351562 -0.839844 C 0.429688 -1.0625 0.515625 -1.289062 0.597656 -1.523438 C 0.632812 -1.609375 0.699219 -1.710938 0.589844 -1.792969 C 0.515625 -1.851562 0.414062 -1.792969 0.335938 -1.648438 C 0.144531 -1.296875 0 -0.925781 -0.101562 -0.539062 C -0.117188 -0.496094 -0.125 -0.453125 -0.125 -0.40625 C -0.132812 -0.296875 -0.0585938 -0.203125 0.0507812 -0.210938 C 0.144531 -0.210938 0.246094 -0.234375 0.335938 -0.277344 C 0.429688 -0.328125 0.511719 -0.414062 0.589844 -0.488281 C 1.042969 -0.894531 1.492188 -1.3125 1.945312 -1.726562 C 2.027344 -1.800781 2.113281 -1.867188 2.246094 -1.980469 C 2.207031 -1.808594 2.171875 -1.707031 2.148438 -1.601562 C 2.105469 -1.4375 2.0625 -1.261719 2.046875 -1.085938 C 2.035156 -0.890625 2.128906 -0.800781 2.324219 -0.789062 C 2.476562 -0.78125 2.609375 -0.832031 2.734375 -0.917969 C 2.972656 -1.101562 3.207031 -1.28125 3.441406 -1.472656 C 3.527344 -1.539062 3.601562 -1.609375 3.730469 -1.734375 C 3.703125 -1.609375 3.695312 -1.558594 3.679688 -1.515625 C 3.613281 -1.328125 3.542969 -1.136719 3.492188 -0.949219 C 3.453125 -0.808594 3.425781 -0.664062 3.417969 -0.515625 C 3.402344 -0.335938 3.503906 -0.234375 3.6875 -0.203125 C 3.863281 -0.175781 4.023438 -0.226562 4.152344 -0.34375 C 4.320312 -0.496094 4.496094 -0.65625 4.65625 -0.824219 C 4.808594 -0.992188 4.941406 -1.167969 5.078125 -1.339844 C 5.117188 -1.382812 5.125 -1.441406 5.027344 -1.488281 Z M 5.027344 -1.488281 "/></g></g></g><g fill="rgb(0%, 0%, 0%)" fill-opacity="1"><g transform="translate(66.155847, 23.804741)"><g><path d="M -1.5625 -6.148438 C -1.40625 -6.132812 -1.25 -6.109375 -1.089844 -6.125 C -0.664062 -6.15625 -0.230469 -6.203125 0.199219 -6.257812 C 0.59375 -6.304688 0.988281 -6.359375 1.375 -6.4375 C 1.605469 -6.480469 1.785156 -6.40625 1.9375 -6.265625 C 2.046875 -6.15625 2.15625 -6.035156 2.226562 -5.894531 C 2.324219 -5.703125 2.417969 -5.507812 2.457031 -5.292969 C 2.527344 -4.953125 2.582031 -4.605469 2.605469 -4.257812 C 2.648438 -3.660156 2.582031 -3.058594 2.503906 -2.457031 C 2.449219 -2.078125 2.394531 -1.699219 2.300781 -1.328125 C 2.171875 -0.796875 1.992188 -0.285156 1.847656 0.238281 C 1.582031 1.183594 1.320312 2.132812 1.058594 3.089844 C 1.019531 3.253906 0.996094 3.421875 0.980469 3.585938 C 0.964844 3.777344 1.058594 3.871094 1.25 3.902344 C 1.539062 3.941406 1.714844 3.871094 1.832031 3.601562 C 1.96875 3.320312 2.078125 3.019531 2.164062 2.726562 C 2.449219 1.761719 2.640625 0.78125 2.828125 -0.199219 C 2.945312 -0.796875 3.027344 -1.40625 3.183594 -2.007812 C 3.601562 -3.546875 3.996094 -5.105469 4.410156 -6.652344 C 4.425781 -6.714844 4.449219 -6.785156 4.472656 -6.859375 C 4.558594 -6.882812 4.636719 -6.90625 4.71875 -6.921875 C 4.96875 -6.953125 5.222656 -6.984375 5.476562 -7.007812 C 6.265625 -7.085938 7.054688 -7.175781 7.847656 -7.253906 C 8.542969 -7.324219 9.238281 -7.378906 9.933594 -7.371094 C 10.207031 -7.363281 10.476562 -7.355469 10.730469 -7.199219 C 10.878906 -7.101562 11.070312 -7.085938 11.21875 -7.253906 C 11.179688 -7.425781 11.054688 -7.507812 10.910156 -7.546875 C 10.722656 -7.601562 10.515625 -7.648438 10.320312 -7.671875 C 9.132812 -7.765625 7.957031 -7.648438 6.777344 -7.554688 C 6.132812 -7.5 5.492188 -7.425781 4.84375 -7.371094 C 4.765625 -7.363281 4.675781 -7.378906 4.597656 -7.378906 C 4.605469 -7.546875 4.621094 -7.679688 4.628906 -7.820312 C 4.371094 -7.878906 4.328125 -7.871094 4.25 -7.71875 C 4.179688 -7.578125 4.125 -7.433594 4.0625 -7.292969 C 3.941406 -7.277344 3.832031 -7.253906 3.730469 -7.238281 C 3.152344 -7.167969 2.574219 -7.101562 2.007812 -7.03125 C 1.652344 -6.984375 1.289062 -6.898438 0.933594 -6.898438 C 0.140625 -6.882812 -0.625 -6.738281 -1.390625 -6.582031 C -1.492188 -6.558594 -1.605469 -6.535156 -1.699219 -6.488281 C -1.761719 -6.464844 -1.800781 -6.398438 -1.847656 -6.351562 C -1.792969 -6.203125 -1.683594 -6.164062 -1.5625 -6.148438 Z M 2.402344 -6.542969 C 2.648438 -6.683594 2.90625 -6.667969 3.144531 -6.699219 C 3.390625 -6.738281 3.632812 -6.828125 3.886719 -6.777344 C 3.839844 -6.464844 3.445312 -5.082031 3.285156 -4.757812 C 3.175781 -5.46875 3.019531 -6.101562 2.402344 -6.542969 Z M 2.402344 -6.542969 "/></g></g></g><g fill="rgb(0%, 0%, 0%)" fill-opacity="1"><g transform="translate(70.264355, 23.804741)"><g><path d="M 2.316406 -2.234375 C 2.257812 -2.441406 2.132812 -2.535156 1.921875 -2.519531 C 1.753906 -2.503906 1.621094 -2.441406 1.507812 -2.316406 C 1.3125 -2.078125 1.113281 -1.832031 0.910156 -1.597656 C 0.859375 -1.53125 0.804688 -1.46875 0.703125 -1.359375 C 0.734375 -1.792969 0.941406 -2.117188 0.964844 -2.503906 C 0.804688 -2.558594 0.710938 -2.535156 0.648438 -2.425781 C 0.601562 -2.355469 0.5625 -2.277344 0.53125 -2.203125 C 0.285156 -1.628906 0.0390625 -1.050781 -0.207031 -0.472656 C -0.246094 -0.378906 -0.277344 -0.277344 -0.300781 -0.171875 C -0.339844 -0.0078125 -0.261719 0.0859375 -0.0859375 0.0859375 C 0.03125 0.0859375 0.148438 0.0546875 0.238281 -0.0390625 C 0.339844 -0.132812 0.441406 -0.238281 0.53125 -0.355469 C 0.710938 -0.585938 0.867188 -0.820312 1.042969 -1.050781 C 1.257812 -1.335938 1.476562 -1.621094 1.707031 -1.902344 C 1.753906 -1.96875 1.816406 -2.015625 1.902344 -2.085938 C 1.945312 -1.96875 1.976562 -1.878906 2 -1.792969 C 2.023438 -1.722656 2.03125 -1.652344 2.070312 -1.589844 C 2.09375 -1.546875 2.15625 -1.507812 2.203125 -1.5 C 2.226562 -1.5 2.285156 -1.554688 2.300781 -1.597656 C 2.363281 -1.808594 2.363281 -2.023438 2.316406 -2.234375 Z M 2.316406 -2.234375 "/></g></g></g><g fill="rgb(0%, 0%, 0%)" fill-opacity="1"><g transform="translate(73.029697, 23.804741)"><g><path d="M 2.679688 -2.0625 C 2.519531 -2 2.480469 -1.878906 2.417969 -1.785156 C 2.03125 -1.273438 1.574219 -0.835938 1.019531 -0.496094 C 0.867188 -0.402344 0.71875 -0.308594 0.503906 -0.292969 C 0.472656 -0.371094 0.433594 -0.441406 0.425781 -0.519531 C 0.425781 -0.617188 0.441406 -0.710938 0.464844 -0.804688 C 0.570312 -1.136719 0.671875 -1.46875 0.78125 -1.800781 C 0.8125 -1.910156 0.878906 -2.023438 0.859375 -2.140625 C 0.59375 -2.234375 0.511719 -2.21875 0.394531 -2.023438 C 0.171875 -1.636719 0 -1.226562 -0.101562 -0.789062 C -0.109375 -0.742188 -0.117188 -0.695312 -0.125 -0.648438 C -0.171875 -0.261719 -0.0078125 -0.0546875 0.386719 -0.0390625 C 0.664062 -0.0234375 0.910156 -0.09375 1.144531 -0.238281 C 1.691406 -0.578125 2.15625 -1.003906 2.503906 -1.554688 C 2.574219 -1.667969 2.632812 -1.785156 2.679688 -1.910156 C 2.695312 -1.945312 2.679688 -1.992188 2.679688 -2.0625 Z M 1.011719 -2.882812 C 1.050781 -2.914062 1.082031 -2.945312 1.105469 -2.988281 C 1.160156 -3.105469 1.207031 -3.222656 1.28125 -3.367188 C 1.058594 -3.429688 0.867188 -3.421875 0.6875 -3.320312 C 0.546875 -3.238281 0.496094 -3.058594 0.570312 -2.945312 C 0.664062 -2.804688 0.878906 -2.773438 1.011719 -2.882812 Z M 1.011719 -2.882812 "/></g></g></g><g fill="rgb(0%, 0%, 0%)" fill-opacity="1"><g transform="translate(75.328881, 23.804741)"><g><path d="M 4.789062 -1.242188 C 4.652344 -1.28125 4.511719 -1.328125 4.371094 -1.335938 C 3.894531 -1.359375 3.4375 -1.242188 2.988281 -1.097656 C 2.898438 -1.074219 2.820312 -1.019531 2.710938 -1.058594 C 2.71875 -1.183594 2.742188 -1.304688 2.742188 -1.421875 C 2.742188 -1.589844 2.75 -1.761719 2.726562 -1.929688 C 2.679688 -2.21875 2.496094 -2.363281 2.195312 -2.371094 C 1.984375 -2.386719 1.792969 -2.316406 1.644531 -2.164062 C 1.460938 -1.984375 1.28125 -1.800781 1.152344 -1.589844 C 0.910156 -1.214844 0.703125 -0.820312 0.488281 -0.425781 C 0.410156 -0.285156 0.339844 -0.132812 0.261719 0.015625 C 0.246094 0.015625 0.238281 0.0078125 0.222656 0.0078125 C 0.253906 -0.109375 0.277344 -0.222656 0.308594 -0.332031 C 0.449219 -0.910156 0.601562 -1.476562 0.742188 -2.046875 C 0.773438 -2.171875 0.773438 -2.316406 0.78125 -2.441406 C 0.78125 -2.480469 0.734375 -2.535156 0.695312 -2.542969 C 0.664062 -2.550781 0.601562 -2.511719 0.585938 -2.480469 C 0.511719 -2.316406 0.441406 -2.148438 0.386719 -1.984375 C -0.222656 -0.140625 -0.820312 1.699219 -1.429688 3.539062 C -1.546875 3.917969 -1.660156 4.304688 -1.769531 4.683594 C -1.800781 4.773438 -1.832031 4.867188 -1.761719 4.953125 C -1.445312 5.015625 -1.429688 5.007812 -1.320312 4.75 C -1.273438 4.652344 -1.234375 4.550781 -1.191406 4.449219 C -0.664062 3.207031 -0.140625 1.96875 0.402344 0.734375 C 0.703125 0.0390625 1.050781 -0.640625 1.460938 -1.28125 C 1.621094 -1.53125 1.816406 -1.761719 2.007812 -2 C 2.046875 -2.046875 2.117188 -2.070312 2.203125 -2.117188 C 2.242188 -2.007812 2.292969 -1.921875 2.316406 -1.824219 C 2.363281 -1.605469 2.371094 -1.375 2.347656 -1.144531 C 2.332031 -0.925781 2.257812 -0.765625 2.054688 -0.65625 C 1.785156 -0.503906 1.554688 -0.308594 1.375 -0.0625 C 1.304688 0.0234375 1.242188 0.140625 1.207031 0.253906 C 1.167969 0.386719 1.25 0.488281 1.382812 0.511719 C 1.574219 0.554688 1.738281 0.496094 1.878906 0.363281 C 2.078125 0.171875 2.25 -0.046875 2.378906 -0.292969 C 2.472656 -0.472656 2.605469 -0.601562 2.78125 -0.695312 C 3.207031 -0.925781 3.648438 -1.097656 4.132812 -1.191406 C 4.363281 -1.242188 4.582031 -1.25 4.789062 -1.113281 C 4.804688 -1.105469 4.835938 -1.128906 4.875 -1.136719 C 4.84375 -1.175781 4.820312 -1.234375 4.789062 -1.242188 Z M 1.730469 0.207031 C 1.769531 0.0859375 1.816406 0.0234375 1.921875 -0.015625 C 1.910156 0.101562 1.863281 0.15625 1.730469 0.207031 Z M 1.730469 0.207031 "/></g></g></g></svg>